<svg viewBox="0 0 576 512">
  <linearGradient id="youtube-gradient" gradientunits="userSpaceOnUse" x1="512.5" y1="719.7"
    x2="512.5"
    y2="1.2" gradienttransform="matrix(1 0 0 -1 0 721)">
    <stop offset="0" style="stop-color:#E52D27" />
    <stop offset="1" style="stop-color:#BF171D" />
  </linearGradient>
  <path
    fill="url('#youtube-gradient')"
    d="M549.655 124.083c-6.281-23.65-24.787-42.276-48.284-48.597C458.781 64 288 64 288 64S117.22 64 74.629 75.486c-23.497 6.322-42.003 24.947-48.284 48.597-11.412 42.867-11.412 132.305-11.412 132.305s0 89.438 11.412 132.305c6.281 23.65 24.787 41.5 48.284 47.821C117.22 448 288 448 288 448s170.78 0 213.371-11.486c23.497-6.321 42.003-24.171 48.284-47.821 11.412-42.867 11.412-132.305 11.412-132.305s0-89.438-11.412-132.305zm-317.51 213.508V175.185l142.739 81.205-142.739 81.201z" />
</svg>